<svg xmlns="http://www.w3.org/2000/svg" xmlns:xlink="http://www.w3.org/1999/xlink" version="1.1" id="Camada_1" x="0px" y="0px" viewBox="0 0 600 600" style="enable-background:new 0 0 600 600;" xml:space="preserve">
  <style type="text/css">
    .st0{clip-path:url(#SVGID_2_);fill:#010202;}
    .st1{clip-path:url(#SVGID_2_);}
    .st2{clip-path:url(#SVGID_4_);fill:#010202;}
  </style>
  <g id="Arte_1_1_">
    <g>
      <defs>
        <rect id="SVGID_1_" x="11.6" y="139.5" width="576.7" height="320.9"/>
      </defs>
      <clipPath id="SVGID_2_">
        <use xlink:href="#SVGID_1_" style="overflow:visible;"/>
      </clipPath>
      <path class="st0" d="M186.3,237.6l22.4,46.1h-44L186.3,237.6z M412.6,139.5l-19.4,41L346,280.2l-49.3-100.1l-19.9-40.6h0l-19.4,41    L232,234.3l-26.7-54.2l-19.9-40.6l-19.4,41L72.6,378.4h47.3l25.4-54.1h44.3H229l4,8.2l22.6,45.9h47.3l-46.8-95l21.6-45.7    l45.2,91.7l24.2,49.1l23.2-49.1l43.2-91.7l69.3,140.8h47.3l-97.7-198.3L412.6,139.5L412.6,139.5z"/>
      <path class="st0" d="M28.1,428.2l9.5,21.7h-19L28.1,428.2z M27.4,424.5l-0.3,0.6L12.3,459l-0.7,1.5H14l0.3-0.6l3.4-7.8h0.7h19.4    h0.8l3.4,7.8l0.3,0.6h2.3l-0.7-1.5l-14.8-33.9l-0.3-0.6H27.4z"/>
      <polygon class="st0" points="50.3,424.5 50.3,425.5 50.3,459.4 50.3,460.5 51.4,460.5 70.5,460.5 71.5,460.5 71.5,458.4     70.5,458.4 52.5,458.4 52.5,425.5 52.5,424.5   "/>
      <polygon class="st0" points="77.9,424.5 77.9,425.5 77.9,459.4 77.9,460.5 80,460.5 80,459.4 80,425.5 80,424.5   "/>
      <polygon class="st0" points="114.9,424.5 114.9,425.5 114.9,456.1 92.5,424.9 92.2,424.5 90.6,424.5 90.6,425.5 90.6,459.4     90.6,460.5 92.7,460.5 92.7,459.4 92.7,428.8 115.1,460 115.4,460.5 117,460.5 117,459.4 117.1,425.5 117.1,424.5   "/>
      <polygon class="st0" points="152,424.5 128.7,424.5 127.6,424.5 127.6,425.5 127.6,441.4 127.6,443.5 127.6,459.4 127.6,460.5     128.7,460.5 152,460.5 153.1,460.5 153.1,458.4 152,458.4 129.8,458.4 129.8,443.5 145.8,443.5 146.8,443.5 146.8,441.4     145.8,441.4 129.8,441.4 129.8,426.6 152,426.6 153.1,426.6 153.1,424.5   "/>
      <polygon class="st0" points="215.3,424.5 215.1,425.1 200.7,456.8 186.3,425.1 186,424.5 184.3,424.5 184.3,425.5 184.3,459.4     184.3,460.5 186.4,460.5 186.4,459.4 186.4,430.4 199.8,459.8 200,460.5 201.4,460.5 201.7,459.8 215,430.4 215,459.4 215,460.5     217.1,460.5 217.1,459.4 217.1,425.5 217.1,424.5   "/>
      <polygon class="st0" points="252.1,424.5 228.8,424.5 227.7,424.5 227.7,425.5 227.7,441.4 227.7,443.5 227.7,459.4 227.7,460.5     228.8,460.5 252.1,460.5 253.1,460.5 253.1,458.4 252.1,458.4 229.8,458.4 229.8,443.5 245.8,443.5 246.9,443.5 246.9,441.4     245.8,441.4 229.8,441.4 229.8,426.6 252.1,426.6 253.1,426.6 253.1,424.5   "/>
      <polygon class="st0" points="281.8,424.5 280.8,424.5 259.4,424.5 258.3,424.5 258.3,426.6 259.4,426.6 278.8,426.6 257.5,458.8     256.5,460.5 257.4,460.5 258.4,460.5 281.7,460.5 282.8,460.5 282.8,458.4 281.7,458.4 260.4,458.4 281.7,426.1 282.7,424.5   "/>
      <polygon class="st0" points="309.4,424.5 308.3,424.5 286.9,424.5 285.9,424.5 285.9,426.6 286.9,426.6 306.3,426.6 285.1,458.8     284,460.5 284.9,460.5 286,460.5 309.3,460.5 310.3,460.5 310.3,458.4 309.3,458.4 287.9,458.4 309.2,426.1 310.3,424.5   "/>
      <path class="st0" d="M328.3,428.2l9.5,21.7h-19L328.3,428.2z M327.6,424.5l-0.3,0.6L312.5,459l-0.7,1.5h2.3l0.3-0.6l3.4-7.8h0.7    H338h0.8l3.4,7.8l0.3,0.6h2.3l-0.7-1.5l-14.8-33.9l-0.3-0.6H327.6z"/>
      <g class="st1">
        <defs>
          <rect id="SVGID_3_" x="11.6" y="139.5" width="576.7" height="320.9"/>
        </defs>
        <clipPath id="SVGID_4_">
          <use xlink:href="#SVGID_3_" style="overflow:visible;"/>
        </clipPath>
        <path class="st2" d="M369.1,443.2c4.6-1.1,7.9-4.8,7.9-9.2c0-5.2-4.7-9.6-10.6-9.6l-14.7,0.1h-1.1v1.1l-0.1,33.8v1.1h2.1v-1.1     v-15.9h13.4c3.3,2.4,5.4,4.8,8.9,16.2l0.2,0.7h2.2l-0.4-1.4C373.9,449,371.8,445.5,369.1,443.2 M366.4,441.4H363l0,0     c-3.4,0-6.9,0-10.3,0v-14.9h13.7c4.7,0,8.5,3.3,8.5,7.5C374.9,438.2,371,441.4,366.4,441.4"/>
        <polygon class="st2" points="385.6,425.5 385.6,459.4 385.6,460.5 387.7,460.5 387.7,459.4 387.7,425.5 387.7,424.5 385.6,424.5         "/>
        <path class="st2" d="M440.5,442c2.9-1.7,4.8-4.7,4.8-8c0-5.2-4.7-9.5-10.6-9.5l-12.7,0.1H421v1.1l-0.1,33.8v1.1h1.1h14.9     c5.8,0,10.5-4.3,10.5-9.5C447.5,446.9,444.6,443.3,440.5,442 M423.1,426.6h11.6c4.6,0,8.5,3.3,8.5,7.4c0,4.1-3.9,7.4-8.5,7.4     l-11.6,0L423.1,426.6z M436.9,458.4l-13.8,0.1l0-14.9h11.6h2.2c4.6,0,8.4,3.3,8.4,7.4C445.3,455.1,441.5,458.4,436.9,458.4"/>
        <path class="st2" d="M473.4,443.2c4.6-1.1,7.9-4.8,7.9-9.2c0-5.2-4.7-9.6-10.6-9.6l-14.7,0.1h-1.1v1.1l-0.1,33.8v1.1h2.1v-1.1     v-15.9h13.4c3.3,2.4,5.4,4.8,8.9,16.2l0.2,0.7h2.2l-0.4-1.4C478.2,449,476.1,445.5,473.4,443.2 M470.8,441.4h-3.4l0,0     c-3.4,0-6.9,0-10.3,0v-14.9h13.7c4.7,0,8.5,3.3,8.5,7.5C479.2,438.2,475.4,441.4,470.8,441.4"/>
        <path class="st2" d="M502.4,425.1l-0.3-0.6h-1.4l-0.3,0.6L485.7,459l-0.7,1.5h2.3l0.3-0.6l3.4-7.8h0.7h19.4h0.8l3.4,7.8l0.3,0.6     h2.3l-0.7-1.5L502.4,425.1z M491.9,449.9l9.5-21.7l9.5,21.7H491.9z"/>
        <polygon class="st2" points="548.1,425.5 548,456.1 525.6,424.9 525.3,424.5 523.7,424.5 523.7,425.5 523.7,459.4 523.7,460.5      525.8,460.5 525.8,459.4 525.8,428.8 548.2,460 548.5,460.5 550.1,460.5 550.1,459.4 550.2,425.5 550.2,424.5 548.1,424.5    "/>
        <path class="st2" d="M574.6,424.5L574.6,424.5h-12.8h-1.1v1.1v33.9v1.1h1.1h12.7h0.1h0.1c8.3-0.7,14.5-8.7,13.7-18     C589.1,433.2,582.9,425.2,574.6,424.5 M574.5,458.4h-11.6v-31.8h11.6c7.1,0.6,12.4,7.8,11.7,15.8v0.1     C586.9,450.6,581.6,457.7,574.5,458.4"/>
      </g>
    </g>
  </g>
  </svg>